<svg width="60" height="30" viewBox="0 0 60 30" fill="none" xmlns="http://www.w3.org/2000/svg">
<g clip-path="url(#clip0_3901_188)">
<path d="M0.00195312 30H59.9976V0H0.00195312V30Z" fill="black"/>
<path d="M0.696777 29.462H59.3583V0.546143H0.696777V29.462Z" fill="white"/>
<path d="M13.636 16.5633L14.7709 17.588L15.9435 16.5701H16.8831V16.8847L15.4135 18.1644L16.8831 19.5328V16.5701H19.5356C20.0372 16.5701 20.7728 16.7528 20.7728 17.5719C20.7728 18.7211 19.8049 18.7347 19.2749 18.7347H17.8975V19.8473H15.9341L14.7347 18.757L13.5061 19.8392H9.60218V16.5627H13.636V16.5633V16.5633ZM25.6533 16.5633H28.9988V17.2698H26.6771V17.8834H28.9342V18.505H26.6771V19.1538H28.9988V19.8398H25.6533V16.5633V16.5633ZM22.281 19.8479H21.2572V16.5708H23.9183C24.4215 16.5708 25.1469 16.7466 25.1469 17.4481C25.1469 17.8443 24.998 18.136 24.4396 18.3558C24.9232 18.3997 25.1099 18.6486 25.1099 19.1749L25.1469 19.8479H24.1506L24.1231 19.2473C24.1144 18.97 23.9742 18.692 23.6214 18.692H22.281V19.8479V19.8479ZM35.4236 17.8406C36.6829 17.8902 36.7869 18.3849 36.7869 18.9111C36.7869 19.5253 36.145 19.8547 35.4748 19.8547H33.3256V19.1532H35.0007C35.285 19.1532 35.7079 19.1532 35.7079 18.8375C35.7079 18.6876 35.6331 18.5929 35.3307 18.5669C35.0957 18.5489 34.8601 18.5361 34.6243 18.5285C33.4878 18.505 33.224 18.061 33.224 17.5199C33.224 16.9057 33.7729 16.5695 34.4431 16.5695H36.5923V17.2723H35.0196C34.6621 17.276 34.2754 17.2388 34.2754 17.5577C34.2754 17.7583 34.4667 17.7985 34.7077 17.8177C34.7912 17.8183 35.3496 17.8406 35.4236 17.8406V17.8406ZM31.5898 17.8406C32.8483 17.8902 32.9531 18.3849 32.9531 18.9111C32.9531 19.5253 32.3104 19.8547 31.641 19.8547H29.491V19.1532H31.1661C31.4496 19.1532 31.8741 19.1532 31.8741 18.8375C31.8741 18.6876 31.7993 18.5929 31.4969 18.5669C31.3614 18.552 30.8637 18.5297 30.7905 18.5285C29.654 18.505 29.3902 18.061 29.3902 17.5199C29.3902 16.9057 29.9391 16.5695 30.6085 16.5695H32.7585V17.2723H31.1858C30.8275 17.276 30.4416 17.2388 30.4416 17.5577C30.4416 17.7583 30.6322 17.7985 30.8747 17.8177C30.9574 17.8183 31.5158 17.8406 31.5898 17.8406V17.8406ZM18.1022 14.2149H17.0784V10.9378H19.7395C20.242 10.9378 20.9689 11.1136 20.9689 11.8151C20.9689 12.2108 20.8201 12.5036 20.2617 12.7228C20.7452 12.7667 20.9319 13.0156 20.9319 13.5419L20.9689 14.2149H19.9734L19.9451 13.615C19.9356 13.337 19.797 13.0596 19.4426 13.0596H18.103V14.2149H18.1022V14.2149ZM21.4903 14.2149H22.5133V10.9341H21.4903V14.2149ZM13.147 10.9378H16.4917V11.6436H14.1723V12.2584H16.4279V12.8807H14.1723V13.5277H16.4917V14.2149H13.147V10.9378V10.9378ZM5.67703 14.2149H7.73805V11.7829L9.10524 14.2149H10.0361L11.4356 11.8232V14.2149H12.4586V10.9378H10.826L9.56989 13.1364L8.31848 10.9378H6.71345V14.0942L4.92649 10.9378H3.57348L1.74951 14.2149H2.82924L3.22853 13.4837H5.27065L5.67703 14.2149V14.2149ZM28.4026 13.4856H26.3613L25.9612 14.2168H24.6113C23.4765 14.2168 22.9732 13.4689 22.9976 12.5618C23.0323 11.2158 24.0443 10.9359 24.5097 10.9359H25.8454V11.6492H25.213C24.5334 11.6492 24.0033 11.7049 24.0033 12.4727V12.7104C24.0081 13.2881 24.3932 13.4249 24.6397 13.4651C24.7003 13.4763 24.8122 13.4806 24.8531 13.4781L25.2957 13.4763L26.7054 10.9378H28.06L29.8044 14.0137V10.9359H31.3158L33.0421 13.2051V10.9359H34.0651V14.2168H32.6696L30.8275 11.817V14.2168H28.8082L28.4026 13.4856V13.4856Z" fill="#A9A9B2"/>
<path d="M36.6012 16.0593V1.47229H1.83789V12.7519L3.14129 10.4412H5.35588L6.082 11.8157V10.4412H8.77937L9.59842 11.8021L10.3986 10.4412H19.9083C20.28 10.4412 20.7824 10.544 21.0069 10.8653V10.4412H22.9978V10.9384C23.2585 10.661 23.6491 10.4412 24.4115 10.4412H28.4689L29.2132 11.7718V10.4412H31.6144L32.4697 11.5972V10.4412H34.6654V14.7121H32.3027L31.3159 13.4546V14.7121H28.3201L27.8365 13.8781H26.8867L26.4402 14.7121H24.5603C24.1508 14.6836 23.2026 14.5511 22.9978 14.0545V14.7121H19.3877V13.7765C19.3877 13.644 19.2388 13.4837 19.0341 13.4837H18.6434V14.7121H10.9569V13.7468L10.3805 14.7121H8.81717L8.22178 13.732V14.7121H5.15112L4.74159 13.9518H3.75479L3.32715 14.7121H1.83789V28.5084H36.6012V20.0528C36.4153 20.2144 36.1176 20.3457 35.6711 20.3457H32.7666V20.0237C32.5437 20.2144 32.2279 20.3457 31.7247 20.3457H23.5373V19.4535C23.5184 19.3358 23.5932 19.0876 23.1837 19.0876H22.849V20.3457H20.6714V18.8962C20.4477 19.1903 19.965 19.204 19.6484 19.2188H18.4938V20.3457H15.5909L14.7529 19.5408L13.8599 20.3457H8.929V16.0593H13.9347L14.8089 16.8345L15.7027 16.0593H19.6665C19.9453 16.0729 20.4753 16.1757 20.6714 16.4098V16.0593H24.0586C24.3563 16.0593 24.9328 16.1609 25.1754 16.468V16.0593H29.4179V16.4389C29.6408 16.2054 29.9952 16.0593 30.5339 16.0593H33.2509V16.4252C33.4557 16.1906 33.996 16.0593 34.3126 16.0593H36.6012V16.0593ZM46.1684 15.6866C46.1684 16.2345 43.5151 15.6303 43.5151 16.9627C43.5151 17.5713 44.1412 17.8468 44.8453 17.8468C45.4005 17.8468 45.8266 17.7564 46.2471 17.4487L46.3983 17.762H47.7364C47.66 17.648 47.6482 17.4995 47.6482 17.3323V15.9615C47.6482 15.2619 47.5411 14.7474 45.7769 14.7474C44.3042 14.7474 43.7419 15.1108 43.7419 15.7312H45.165C45.2005 15.4798 45.4785 15.447 45.6848 15.447C45.8423 15.447 46.1684 15.4749 46.1684 15.6866V15.6866ZM53.8675 17.367V17.7589H55.1968V13.7307H53.7186V15.1238C53.4044 14.8328 53.0775 14.7436 52.6082 14.7436C51.7182 14.7436 51.0283 15.3752 51.0283 16.3491C51.0283 17.1769 51.5977 17.8425 52.7216 17.8425C53.1996 17.8425 53.5194 17.7254 53.8675 17.367V17.367ZM50.6448 15.7522V14.7604C50.581 14.7548 50.5164 14.7436 50.4519 14.7436C49.8769 14.7436 49.5131 14.9616 49.3068 15.421H49.2926V14.8278H47.9482V17.7583H49.4272V16.6042C49.4272 15.972 49.7336 15.7479 50.3384 15.7479L50.6448 15.7522V15.7522ZM41.8124 15.2631C41.762 14.8446 41.4273 14.6037 40.9012 14.6037C40.3106 14.6037 39.9546 15.0012 39.9546 15.7782C39.9546 16.3435 40.1113 16.8741 40.9642 16.8741C41.5061 16.8741 41.762 16.5788 41.8266 16.1924H43.4411C43.293 17.2326 42.3456 17.8579 40.9949 17.8579C39.3017 17.8579 38.2763 17.0431 38.2763 15.733C38.2763 14.4297 39.4001 13.6187 40.8311 13.6187C42.396 13.6187 43.2717 14.2285 43.4072 15.2625H41.8124V15.2631V15.2631Z" fill="#A9A9B2"/>
<path d="M17.8987 18.0629H19.1738C19.592 18.0629 19.7408 17.8722 19.7408 17.653C19.7408 17.492 19.6061 17.2772 19.1777 17.2772H17.8987V18.0629ZM12.9482 17.2698H10.6273V17.8833H12.8828V18.5049H10.6273V19.1538H12.986L14.1122 18.165L13.1159 17.2728L12.9482 17.2698ZM22.2815 18.0195H23.5565C23.9747 18.0195 24.1235 17.8728 24.1235 17.653C24.1235 17.492 23.9889 17.2772 23.5604 17.2772H22.2815V18.0195V18.0195ZM18.1027 12.3866H19.3778C19.7967 12.3866 19.9448 12.2404 19.9448 12.0207C19.9448 11.8603 19.8101 11.6436 19.3817 11.6436H18.1027V12.3866V12.3866ZM4.87579 12.7785H3.62988L4.24102 11.6324L4.87579 12.7785ZM27.3714 11.6343L26.7618 12.7797H28.0125L27.3714 11.6343Z" fill="white"/>
<path d="M57.9501 18.6566L45.4272 28.501H47.2055L57.9501 20.0546V18.6566Z" fill="#121214"/>
<path d="M57.9501 21.4113L48.9326 28.5011H50.7093L57.9501 22.8099V21.4113Z" fill="#A9A9B2"/>
<path d="M57.9503 24.1664L52.4351 28.501H54.2149L57.9503 25.5638V24.1664Z" fill="#323238"/>
<path d="M37.873 26.9508C37.8736 26.7463 37.9253 26.544 38.0254 26.3553C38.1254 26.1666 38.2717 25.9953 38.4561 25.851C38.6404 25.7068 38.859 25.5926 39.0995 25.5149C39.34 25.4371 39.5976 25.3974 39.8577 25.398C40.1171 25.3978 40.3741 25.4378 40.6138 25.5158C40.8535 25.5938 41.0713 25.7082 41.2548 25.8524C41.4383 25.9966 41.5837 26.1679 41.6829 26.3563C41.7821 26.5448 41.8331 26.7468 41.8329 26.9508C41.834 27.1553 41.7838 27.358 41.685 27.5473C41.5863 27.7365 41.441 27.9086 41.2575 28.0536C41.074 28.1986 40.8559 28.3137 40.6157 28.3923C40.3755 28.4709 40.1179 28.5115 39.8577 28.5116C39.5969 28.5119 39.3386 28.4717 39.0976 28.3933C38.8567 28.3149 38.6377 28.2 38.4534 28.055C38.269 27.91 38.1228 27.7378 38.0233 27.5483C37.9237 27.3588 37.8726 27.1558 37.873 26.9508V26.9508Z" fill="#A9A9B2"/>
<path d="M41.5945 26.9507C41.5946 26.7714 41.5498 26.5938 41.4625 26.4282C41.3753 26.2626 41.2474 26.1121 41.0861 25.9853C40.9248 25.8586 40.7333 25.7581 40.5226 25.6896C40.3119 25.6211 40.086 25.5859 39.858 25.5861C39.6296 25.5856 39.4033 25.6205 39.1922 25.6889C38.981 25.7572 38.789 25.8576 38.6273 25.9844C38.4655 26.1111 38.3372 26.2617 38.2496 26.4275C38.162 26.5933 38.1168 26.7711 38.1167 26.9507C38.1167 27.3132 38.2999 27.6609 38.626 27.9173C38.9521 28.1737 39.3944 28.3177 39.8556 28.3177C40.3168 28.3177 40.7591 28.1737 41.0852 27.9173C41.4113 27.6609 41.5945 27.3132 41.5945 26.9507V26.9507Z" fill="white"/>
<path d="M40.8424 27.8231H40.5218L39.8879 27.02H39.3917V27.8231H39.1216V26.082H40.0855C40.2722 26.082 40.4588 26.0907 40.625 26.1681C40.7912 26.2418 40.8731 26.3966 40.8731 26.5427C40.8731 26.8857 40.5683 27.012 40.1737 27.02L40.8424 27.8231V27.8231Z" fill="#A9A9B2"/>
<path d="M39.8063 26.8529C40.1174 26.8529 40.5994 26.8938 40.5994 26.5384C40.5994 26.2697 40.2986 26.2375 40.0237 26.2375H39.3921V26.8529H39.8063ZM46.1682 16.4643C46.1721 17.0128 45.9579 17.1862 45.4389 17.1862C45.1467 17.1862 44.9687 17.0853 44.9687 16.9404C44.9695 16.559 45.6854 16.6488 46.1682 16.4643V16.4643ZM53.768 16.3213C53.768 16.6618 53.605 17.0029 53.0923 17.0029C52.6096 17.0029 52.5103 16.6457 52.5103 16.3374C52.5103 16.0142 52.645 15.6439 53.1364 15.6439C53.6263 15.6439 53.768 15.9962 53.768 16.3213Z" fill="white"/>
</g>
<defs>
<clipPath id="clip0_3901_188">
<rect width="60" height="30" fill="white"/>
</clipPath>
</defs>
</svg>
