<svg width="60" height="30" viewBox="0 0 60 30" fill="none" xmlns="http://www.w3.org/2000/svg">
<path fill-rule="evenodd" clip-rule="evenodd" d="M30.0002 21.5047C31.8085 20.6798 33.2521 19.6751 34.2383 18.555C35.2246 17.4349 35.7318 16.224 35.7273 15.0002C35.7318 13.7763 35.2247 12.5654 34.2384 11.4453C33.2521 10.3252 31.8085 9.32045 30.0002 8.49561C26.908 7.08429 22.806 6.22424 18.3047 6.22424C8.68286 6.22424 0.882324 10.1533 0.882324 15.0002C0.882324 19.8469 8.68286 23.7761 18.3047 23.7761C22.806 23.7761 26.9083 22.916 30.0002 21.5047Z" fill="#323238"/>
<path fill-rule="evenodd" clip-rule="evenodd" d="M41.6958 6.22424C37.1945 6.22424 33.0919 7.08429 30.0003 8.49561C29.3698 8.78366 28.7819 9.09419 28.2413 9.42477H31.758C32.2409 9.71982 32.6848 10.0302 33.0872 10.3541H26.9131C26.5414 10.6535 26.206 10.9639 25.9086 11.2834H34.0901C34.3717 11.5858 34.6186 11.896 34.8294 12.2125H25.1709C24.9683 12.5174 24.7995 12.8276 24.665 13.1417H35.3355C35.5968 13.7525 35.7282 14.3755 35.7277 15.0002C35.7277 15.9744 35.4115 16.9118 34.8297 17.7876H25.1709C25.381 18.1042 25.6273 18.4145 25.9086 18.7169H34.0901C33.7933 19.0365 33.4583 19.3468 33.0869 19.6462H26.9131C27.315 19.97 27.7586 20.2805 28.241 20.5755H31.758C31.2181 20.9063 30.6306 21.2169 30.0003 21.5049C33.0919 22.9162 37.1945 23.7762 41.6958 23.7762C51.3173 23.7762 59.1181 19.847 59.1181 15.0003C59.1181 10.1533 51.3173 6.22424 41.6958 6.22424Z" fill="#202024"/>
<path fill-rule="evenodd" clip-rule="evenodd" d="M56.7979 19.8921C56.7979 19.7355 57.0497 19.6085 57.361 19.6085C57.6716 19.6085 57.9234 19.7355 57.9234 19.8921C57.9234 20.0484 57.6716 20.1754 57.361 20.1754C57.2112 20.1751 57.0677 20.1451 56.9621 20.092C56.8565 20.0389 56.7974 19.967 56.7979 19.8921V19.8921ZM57.3606 20.1072C57.5966 20.1072 57.788 20.0112 57.788 19.8919C57.788 19.7727 57.5966 19.6764 57.3606 19.6764C57.1241 19.6764 56.9326 19.7727 56.9326 19.8919C56.9326 20.0112 57.1244 20.1072 57.3606 20.1072ZM57.2847 20.0163H57.1692V19.767H57.3784C57.4216 19.767 57.4659 19.7676 57.5041 19.7797C57.524 19.7867 57.5402 19.7961 57.5512 19.8069C57.5622 19.8178 57.5677 19.8298 57.5673 19.842C57.5673 19.87 57.5346 19.8964 57.4817 19.9064L57.5729 20.0161H57.4447L57.3694 19.9176H57.285V20.0163V19.8753H57.3488C57.3718 19.8753 57.398 19.8759 57.4188 19.8701C57.4281 19.867 57.4356 19.8627 57.4407 19.8577C57.4458 19.8527 57.4484 19.8471 57.4481 19.8415C57.4477 19.8365 57.445 19.8316 57.4401 19.8272C57.4353 19.8228 57.4284 19.8191 57.4201 19.8163C57.4002 19.8102 57.3678 19.8118 57.346 19.8118H57.2853V20.0163H57.2847Z" fill="#202024"/>
<path fill-rule="evenodd" clip-rule="evenodd" d="M53.114 16.9022C53.114 16.7456 53.3658 16.6186 53.6765 16.6186C53.9871 16.6186 54.2389 16.7456 54.2389 16.9022C54.2389 17.0588 53.9871 17.1854 53.6765 17.1854C53.3658 17.1854 53.114 17.0586 53.114 16.9022ZM53.6761 17.1173C53.9121 17.1173 54.1035 17.0209 54.1035 16.902C54.1035 16.7828 53.9121 16.6865 53.6761 16.6865C53.4396 16.6865 53.2488 16.7828 53.2488 16.902C53.2488 17.0209 53.4399 17.1173 53.6761 17.1173ZM53.6002 17.0264H53.4847V16.7774H53.6939C53.7372 16.7774 53.782 16.7777 53.8196 16.7901C53.8395 16.7971 53.8557 16.8064 53.8667 16.8172C53.8777 16.828 53.8832 16.8399 53.8828 16.8521C53.8828 16.8804 53.8505 16.9065 53.7972 16.9165L53.8884 17.0262H53.7608L53.6849 16.9277H53.6005V17.0264V16.8854H53.6643C53.688 16.8854 53.7141 16.8863 53.7344 16.8805C53.7435 16.8773 53.751 16.873 53.7561 16.868C53.7612 16.863 53.7637 16.8575 53.7636 16.8519C53.7634 16.8468 53.7608 16.8419 53.7559 16.8374C53.751 16.833 53.744 16.8292 53.7356 16.8264C53.7157 16.8206 53.6833 16.8219 53.6621 16.8219H53.6008V17.0264H53.6002ZM16.1284 17.1854H13.96L15.2487 13.7652L12.2816 17.1854H10.3044L9.94304 13.7848L8.65032 17.1854H6.68213L8.36394 12.7362H11.7475L11.9265 15.4907L14.3121 12.7362H17.8379L16.1284 17.1854V17.1854ZM40.3614 17.1411C39.7681 17.2231 39.3043 17.2584 38.8031 17.2584C37.6938 17.2584 37.088 16.9781 37.088 16.4639C37.088 16.3621 37.1104 16.2538 37.1518 16.1392L37.2838 15.7855L37.3853 15.4991L38.3904 12.7361H40.5469L40.2344 13.567H41.341L41.0437 14.4467H39.9324L39.361 15.9564C39.3398 16.0057 39.3274 16.0558 39.3239 16.1063C39.3239 16.2932 39.5483 16.3744 40.0638 16.3744C40.3106 16.3744 40.5021 16.3632 40.6487 16.3406L40.3614 17.1411ZM46.6946 13.5968C46.5128 13.5606 46.4701 13.5606 46.449 13.5577C46.3341 13.5449 46.2728 13.5375 46.2622 13.5365C46.1902 13.5302 46.1171 13.5272 46.044 13.5275C45.3321 13.5275 44.8188 13.6872 44.1552 14.115L44.3466 13.5667H42.3828L41.0611 17.1853H43.231C44.0073 14.9723 44.3398 14.5847 45.3807 14.5847C45.4591 14.5847 45.5497 14.5879 45.6549 14.5939L45.9083 14.6199L46.6946 13.5968V13.5968ZM31.7655 14.7102C31.7655 15.1673 32.277 15.4821 33.4362 15.7187C34.3245 15.9005 34.4618 15.9537 34.4618 16.1181C34.4618 16.3433 34.0702 16.4449 33.2027 16.4449C32.5478 16.4449 31.9392 16.4006 31.2367 16.3017L30.9357 17.1364L31.0328 17.1447L31.4347 17.1817C31.5642 17.1929 31.755 17.2036 32.008 17.2133C32.5297 17.2337 32.9334 17.2433 33.218 17.2433C35.5326 17.2433 36.6018 16.8612 36.6018 16.0359C36.6018 15.5393 36.1548 15.2481 35.0557 15.0288C34.1359 14.8456 34.0294 14.805 34.0294 14.6361C34.0294 14.4411 34.3943 14.3409 35.103 14.3409C35.5341 14.3409 36.1218 14.3612 36.6793 14.3952L36.9918 13.5575C36.4241 13.5186 35.5625 13.4867 35.0616 13.4867C32.6075 13.4869 31.7581 14.0428 31.7655 14.7102V14.7102ZM23.1775 17.1854H21.3755L21.4175 16.8104C20.8688 17.1073 20.1373 17.248 19.1431 17.248C17.968 17.248 17.1615 16.8449 17.1615 16.2597C17.1615 15.3782 18.5625 14.8644 20.9706 14.8644C21.2174 14.8644 21.5308 14.8742 21.854 14.8923C21.9212 14.7734 21.9396 14.722 21.9396 14.6573C21.9396 14.4177 21.5614 14.3281 20.5488 14.3281C19.9297 14.3281 19.2299 14.3673 18.7468 14.4289L18.4464 14.4674L18.2519 14.4907L18.5526 13.6772C19.6336 13.5378 20.3471 13.485 21.1486 13.485C23.0122 13.485 23.9971 13.8526 23.9971 14.5465C23.9971 14.725 23.9644 14.8605 23.8209 15.2633L23.3677 16.547L23.2914 16.7774L23.236 16.9613L23.199 17.0872L23.1775 17.1854V17.1854ZM21.5956 15.5733C21.4348 15.5633 21.273 15.5584 21.1109 15.5584C19.882 15.5584 19.2595 15.7435 19.2595 16.1089C19.2595 16.3341 19.5633 16.4779 20.0374 16.4779C20.9214 16.4781 21.5582 16.1084 21.5956 15.5733ZM30.291 17.1073C29.5668 17.2056 28.8196 17.2549 28.0692 17.2541C25.645 17.2531 24.3815 16.6972 24.3815 15.633C24.3815 14.3908 25.9889 13.4763 28.171 13.4763C29.9561 13.4763 31.096 13.9885 31.096 14.7916C31.096 15.0582 31.0182 15.3181 30.8299 15.6849H26.5184C26.5052 15.7225 26.4982 15.7605 26.4975 15.7986C26.4975 16.218 27.1403 16.432 28.3997 16.432C29.1742 16.432 29.8742 16.3612 30.6515 16.2031L30.291 17.1073ZM29.1362 14.9542C29.148 14.8789 29.1543 14.8173 29.1543 14.7696C29.1543 14.4758 28.7742 14.3034 28.1286 14.3034C27.4388 14.3034 26.9455 14.5346 26.7453 14.952L29.1362 14.9542ZM53.4349 15.5449C53.1102 16.7486 51.4415 17.2824 49.2231 17.2824C46.7699 17.2824 45.7791 16.5329 45.7791 15.6144C45.7791 14.332 47.4572 13.4631 50.0489 13.4631C52.2984 13.4631 53.4928 14.1776 53.4928 15.0962C53.4928 15.3197 53.4922 15.3344 53.4349 15.5449ZM51.2018 15.0818C51.2018 14.7033 50.8968 14.346 50.0078 14.346C48.9012 14.346 48.2155 15.0048 48.2155 15.5864C48.2155 16.077 48.6855 16.4066 49.4606 16.3996C49.9306 16.3996 50.9329 16.0771 51.1312 15.5139C51.1775 15.3825 51.2018 15.2384 51.2018 15.0818V15.0818Z" fill="url(#paint0_linear_3904_194)"/>
<defs>
<linearGradient id="paint0_linear_3904_194" x1="30.4605" y1="12.7361" x2="30.4605" y2="17.2824" gradientUnits="userSpaceOnUse">
<stop stop-color="white"/>
<stop offset="1" stop-color="white" stop-opacity="0.75"/>
</linearGradient>
</defs>
</svg>